<?xml version="1.0" encoding="UTF-8" standalone="no"?>
<!-- Generator: Adobe Illustrator 26.0.2, SVG Export Plug-In . SVG Version: 6.00 Build 0)  -->

<svg
   version="1.1"
   id="Ebene_1"
   x="0px"
   y="0px"
   viewBox="0 0 124 81"
   style="enable-background:new 0 0 124 81;"
   xml:space="preserve"
   sodipodi:docname="dachser.svg"
   inkscape:version="1.1.1 (c3084ef, 2021-09-22)"
   xmlns:inkscape="http://www.inkscape.org/namespaces/inkscape"
   xmlns:sodipodi="http://sodipodi.sourceforge.net/DTD/sodipodi-0.dtd"
   xmlns="http://www.w3.org/2000/svg"
   xmlns:svg="http://www.w3.org/2000/svg"><defs
   id="defs43" /><sodipodi:namedview
   id="namedview41"
   pagecolor="#ffffff"
   bordercolor="#666666"
   borderopacity="1.0"
   inkscape:pageshadow="2"
   inkscape:pageopacity="0.0"
   inkscape:pagecheckerboard="0"
   showgrid="false"
   inkscape:zoom="4.6215823"
   inkscape:cx="96.828308"
   inkscape:cy="39.055887"
   inkscape:window-width="1312"
   inkscape:window-height="773"
   inkscape:window-x="0"
   inkscape:window-y="25"
   inkscape:window-maximized="0"
   inkscape:current-layer="Ebene_1" />
<style
   type="text/css"
   id="style9">
	.st0{fill:#FBBA00;}
	.st1{fill:#1A3682;}
</style>
<rect
   y="19.129372"
   class="st0"
   width="124"
   height="61.870628"
   id="rect11"
   x="0"
   style="stroke-width:0.873976" />
<path
   id="path1109"
   class="st1"
   d="M16.9,50.7h6.3c4.4,0,6.6-3.6,6.6-8.4c0-5.5-2.8-8.2-6.6-8.2h-6.3V50.7z M20.1,37.2h2.3  c3.2,0,4.2,2.1,4.2,5.5c0,3.7-1.8,5-3.6,5h-2.9V37.2L20.1,37.2z" />
<path
   id="path1111"
   class="st1"
   d="M28.5,50.7h3.2l1.1-3.7h5.4l1.1,3.7h3.3l-5.4-16.6h-3.3L28.5,50.7z M35.6,38.2L35.6,38.2l1.9,6.1  h-3.7L35.6,38.2z" />
<path
   id="path1113"
   class="st1"
   d="M52.1,39.7c-0.2-1.6-1.6-2.9-3.2-2.9c-2.9,0-3.9,2.8-3.9,5.7c0,2.8,1.1,5.6,3.9,5.6  c1.9,0,3.1-1.5,3.3-3.7h3.1c-0.3,4.1-2.8,6.8-6.4,6.8c-4.5,0-7.1-3.8-7.1-8.6c0-4.9,2.6-8.8,7.1-8.8c3.2,0,5.9,2.1,6.3,6L52.1,39.7  L52.1,39.7z" />
<path
   id="path1115"
   class="st1"
   d="M56.4,34.1h3.2v6.4h5.9v-6.4h3.2v16.6h-3.2v-7.2h-5.9v7.2h-3.2V34.1z" />
<path
   id="path1117"
   class="st1"
   d="M72.5,45.2c0,2.2,1.5,3.1,3.2,3.1c1.1,0,2.8-0.4,2.8-2.1c0-1.8-2.2-2.1-4.3-2.8  c-2.1-0.6-4.3-1.6-4.3-4.7c0-3.4,2.8-5,5.4-5c3,0,5.8,1.5,5.8,5.3H78c-0.1-2-1.4-2.5-2.9-2.5c-1,0-2.2,0.5-2.2,1.9  c0,1.3,0.7,1.4,4.3,2.5c1.1,0.3,4.3,1.1,4.3,4.8c0,3.1-2.1,5.3-6,5.3c-3.2,0-6.2-1.8-6.2-5.9L72.5,45.2L72.5,45.2z" />
<path
   id="path1119"
   class="st1"
   d="M82.7,34.1h10.8v3.1h-7.6v3.6h7v2.9h-7v4.1h7.8v3.1h-11V34.1L82.7,34.1z" />
<path
   id="path1121"
   class="st1"
   d="M94.7,50.7h3.2v-6.5h3.2c1.6,0,2.2,0.8,2.4,2.5c0.2,1.3,0.1,2.9,0.5,4h3.2  c-0.6-0.9-0.6-2.9-0.6-3.9c-0.1-1.7-0.6-3.4-2.1-3.9v-0.1c1.6-0.7,2.3-2.2,2.3-4.2c0-2.5-1.6-4.6-4.2-4.6h-7.8L94.7,50.7L94.7,50.7z   M97.8,36.9h3.5c1.4,0,2.2,0.7,2.2,2.3c0,1.7-0.8,2.4-2.2,2.4h-3.5V36.9z" />
<path
   id="path1123"
   d="M16.9,55.1h1.5V62h-1.5V55.1z" />
<path
   id="path1125"
   d="M19.6,57h1.3v0.7l0,0c0.4-0.6,0.9-0.8,1.5-0.8c1.5,0,1.8,0.8,1.8,2.1v3.1h-1.4v-2.9c0-0.8-0.2-1.2-0.9-1.2  c-0.7,0-1.1,0.4-1.1,1.4V62h-1.4v-5H19.6z" />
<path
   id="path1127"
   d="M27.1,57h1v0.9h-1v2.5c0,0.5,0.1,0.6,0.6,0.6c0.1,0,0.3,0,0.4,0v1.1c-0.2,0-0.5,0.1-0.8,0.1  c-0.9,0-1.6-0.2-1.6-1.2v-3h-0.8v-0.9h0.8v-1.5h1.4V57L27.1,57z" />
<path
   id="path1129"
   d="M33.6,59.9c0.1-1.5-0.7-3-2.4-3c-1.5,0-2.6,1.1-2.6,2.6c0,1.6,1,2.6,2.6,2.6c1.1,0,2-0.5,2.4-1.7h-1.2  c-0.1,0.3-0.5,0.6-1.1,0.6c-0.8,0-1.2-0.4-1.2-1.3L33.6,59.9L33.6,59.9z M29.9,59c0-0.4,0.3-1.1,1.1-1.1c0.7,0,1,0.4,1.1,1.1H29.9z" />
<path
   id="path1131"
   d="M34.4,55.1h1.4V62h-1.4V55.1z" />
<path
   id="path1133"
   d="M36.9,55.1h1.4V62h-1.4V55.1z" />
<path
   id="path1135"
   d="M40.8,56.3h-1.4v-1.1h1.4V56.3z M39.5,57h1.4v5h-1.4V57z" />
<path
   id="path1137"
   d="M46.8,57h-1.3v0.7l0,0c-0.3-0.6-0.8-0.8-1.5-0.8c-1.4,0-2.1,1.2-2.1,2.5c0,1.4,0.6,2.5,2.1,2.5  c0.6,0,1.2-0.3,1.5-0.8l0,0v0.6c0,0.7-0.4,1.2-1.1,1.2c-0.5,0-0.9-0.2-1-0.7H42c0.1,1.1,1.2,1.6,2.2,1.6c2.3,0,2.6-1.4,2.6-2.2  L46.8,57L46.8,57z M44.3,60.9c-0.9,0-1.1-0.8-1.1-1.5s0.4-1.4,1.1-1.4c0.9,0,1.2,0.7,1.2,1.5C45.4,60.2,45,60.9,44.3,60.9" />
<path
   id="path1139"
   d="M52.6,59.9c0.1-1.5-0.7-3-2.4-3c-1.5,0-2.6,1.1-2.6,2.6c0,1.6,1,2.6,2.6,2.6c1.1,0,2-0.5,2.4-1.7h-1.2  c-0.1,0.3-0.5,0.6-1.1,0.6c-0.8,0-1.2-0.4-1.2-1.3L52.6,59.9L52.6,59.9z M49,59c0-0.4,0.3-1.1,1.1-1.1c0.7,0,1,0.4,1.1,1.1H49z" />
<path
   id="path1141"
   d="M53.4,57h1.3v0.7l0,0c0.4-0.6,0.9-0.8,1.5-0.8c1.5,0,1.8,0.8,1.8,2.1v3.1h-1.4v-2.9c0-0.8-0.2-1.2-0.9-1.2  c-0.7,0-1.1,0.4-1.1,1.4V62h-1.4v-5H53.4z" />
<path
   id="path1143"
   d="M60.9,57h1v0.9h-1v2.5c0,0.5,0.1,0.6,0.6,0.6c0.1,0,0.3,0,0.4,0v1.1c-0.2,0-0.5,0.1-0.8,0.1  c-0.9,0-1.6-0.2-1.6-1.2v-3h-0.8v-0.9h0.8v-1.5h1.4L60.9,57L60.9,57z" />
<path
   id="path1145"
   d="M65.4,55.1h1.5v5.6h3.4V62h-4.9V55.1z" />
<path
   id="path1147"
   d="M70.9,59.6c0,1.6,1,2.6,2.6,2.6s2.6-1.1,2.6-2.6s-1-2.6-2.6-2.6S70.9,57.9,70.9,59.6 M72.3,59.6  c0-0.8,0.3-1.6,1.2-1.6s1.2,0.8,1.2,1.6c0,0.8-0.3,1.6-1.2,1.6S72.3,60.3,72.3,59.6" />
<path
   id="path1149"
   d="M81.8,57h-1.3v0.7l0,0c-0.3-0.6-0.8-0.8-1.5-0.8c-1.4,0-2.1,1.2-2.1,2.5c0,1.4,0.6,2.5,2.1,2.5  c0.6,0,1.2-0.3,1.5-0.8l0,0v0.6c0,0.7-0.4,1.2-1.1,1.2c-0.5,0-0.9-0.2-1-0.7H77c0.1,1.1,1.2,1.6,2.2,1.6c2.3,0,2.6-1.4,2.6-2.2V57  L81.8,57z M79.3,60.9c-0.9,0-1.1-0.8-1.1-1.5s0.4-1.4,1.1-1.4c0.9,0,1.2,0.7,1.2,1.5C80.5,60.2,80.1,60.9,79.3,60.9" />
<path
   id="path1151"
   d="M84.3,56.3h-1.4v-1.1h1.4V56.3z M82.9,57h1.4v5h-1.4V57z" />
<path
   id="path1153"
   d="M86.4,60.4c0,0.6,0.5,0.9,1.1,0.9c0.4,0,0.9-0.1,0.9-0.6c0-0.4-0.6-0.6-1.6-0.8c-0.8-0.2-1.6-0.5-1.6-1.4  c0-1.3,1.1-1.6,2.2-1.6c1.1,0,2.1,0.4,2.2,1.6h-1.3c0-0.5-0.4-0.7-0.9-0.7c-0.3,0-0.8,0.1-0.8,0.5c0,0.5,0.8,0.6,1.6,0.7  c0.8,0.2,1.6,0.5,1.6,1.4c0,1.3-1.1,1.7-2.3,1.7s-2.3-0.4-2.4-1.8L86.4,60.4L86.4,60.4z" />
<path
   id="path1155"
   d="M92.3,57h1v0.9h-1v2.5c0,0.5,0.1,0.6,0.6,0.6c0.1,0,0.3,0,0.4,0v1.1c-0.3,0-0.6,0-0.8,0  c-0.9,0-1.6-0.2-1.6-1.2v-3h-0.8V57h0.8v-1.5h1.4C92.3,55.5,92.3,57,92.3,57z" />
<path
   id="path1157"
   d="M95.7,56.3h-1.4v-1.1h1.4V56.3z M94.3,57h1.4v5h-1.4V57z" />
<path
   id="path1159"
   d="M100,58.8c-0.1-0.6-0.4-0.9-1-0.9c-0.9,0-1.2,0.9-1.2,1.6s0.3,1.6,1.1,1.6c0.6,0,1-0.4,1.1-1h1.3  c-0.2,1.3-1.1,2.1-2.4,2.1c-1.5,0-2.5-1.1-2.5-2.6c0-1.6,0.9-2.7,2.6-2.7c1.2,0,2.3,0.6,2.4,1.9H100z" />
<path
   id="path1161"
   d="M103.4,60.4c0,0.6,0.5,0.9,1.1,0.9c0.4,0,0.9-0.1,0.9-0.6c0-0.4-0.6-0.6-1.6-0.8c-0.8-0.2-1.6-0.5-1.6-1.4  c0-1.3,1.1-1.6,2.2-1.6c1.1,0,2.1,0.4,2.2,1.6h-1.3c0-0.5-0.4-0.7-0.9-0.7c-0.3,0-0.8,0.1-0.8,0.5c0,0.5,0.8,0.6,1.6,0.7  c0.8,0.2,1.6,0.5,1.6,1.4c0,1.3-1.1,1.7-2.3,1.7s-2.3-0.4-2.4-1.8L103.4,60.4L103.4,60.4z" />
</svg>
