<svg width="36" height="36" viewBox="0 0 36 36" fill="none" xmlns="http://www.w3.org/2000/svg">
<path d="M20.9039 35.7681C20.7562 35.7892 20.6016 35.8173 20.4539 35.8384C20.6016 35.8103 20.7492 35.7892 20.9039 35.7681Z" fill="black"/>
<path d="M21.2625 35.7046C21.1922 35.7187 21.1219 35.7327 21.0445 35.7397C21.1219 35.7327 21.1922 35.7187 21.2625 35.7046Z" fill="black"/>
<path d="M20.0461 35.8804C19.8703 35.9015 19.6945 35.9155 19.5188 35.9296C19.6945 35.9226 19.8703 35.9015 20.0461 35.8804Z" fill="black"/>
<path d="M20.3977 35.8384C20.3133 35.8524 20.2289 35.8595 20.1445 35.8665C20.2219 35.8595 20.3133 35.8524 20.3977 35.8384Z" fill="black"/>
<path d="M21.7547 35.6062C21.6914 35.6203 21.6281 35.6343 21.5648 35.6484C21.6281 35.6343 21.6914 35.6203 21.7547 35.6062Z" fill="black"/>
<path d="M22.9711 35.304C22.9219 35.318 22.8656 35.3321 22.8164 35.3461C22.8656 35.3321 22.9148 35.318 22.9711 35.304Z" fill="black"/>
<path d="M22.5984 35.4023C22.5422 35.4164 22.4859 35.4305 22.4297 35.4445C22.493 35.4375 22.5422 35.4234 22.5984 35.4023Z" fill="black"/>
<path d="M22.1203 35.5288C22.0641 35.5429 22.0008 35.5569 21.9445 35.571C22.0008 35.5499 22.0641 35.5358 22.1203 35.5288Z" fill="black"/>
<path d="M19.5117 35.9368C19.4203 35.9438 19.3219 35.9508 19.2305 35.9579C19.3219 35.9508 19.4203 35.9438 19.5117 35.9368Z" fill="black"/>
<path d="M36 18C36 8.05781 27.9422 0 18 0C8.05781 0 0 8.05781 0 18C0 27.9422 8.05781 36 18 36C18.1055 36 18.2109 36 18.3164 35.993V21.9867H14.4492V17.4797H18.3164V14.1609C18.3164 10.3148 20.6648 8.21953 24.0961 8.21953C25.7414 8.21953 27.1547 8.33906 27.5625 8.39531V12.4172H25.2C23.3367 12.4172 22.9711 13.3031 22.9711 14.6039V17.4727H27.4359L26.8523 21.9797H22.9711V35.3039C30.4945 33.1453 36 26.2195 36 18Z" fill="black"/>
<path d="M19.1883 35.9578C18.9984 35.9718 18.8156 35.9789 18.6258 35.9859C18.8156 35.9789 18.9984 35.9718 19.1883 35.9578Z" fill="black"/>
<path d="M18.6187 35.9858C18.5203 35.9858 18.4219 35.9929 18.3234 35.9929C18.4148 35.9929 18.5133 35.9929 18.6187 35.9858Z" fill="black"/>
</svg>
