<svg width="36" height="36" viewBox="0 0 36 36" fill="none" xmlns="http://www.w3.org/2000/svg">
<g clip-path="url(#clip0_20622_1005)">
<path d="M35.9222 27.8934C35.8203 27.5866 35.1725 27.1346 33.9791 26.5386C33.6559 26.3507 33.1952 26.0954 32.5991 25.7715C32.0025 25.4476 31.461 25.1491 30.9755 24.8763C30.4891 24.6036 30.0334 24.3394 29.6075 24.0841C29.5395 24.033 29.3264 23.8841 28.9685 23.6364C28.6102 23.3894 28.308 23.2061 28.0604 23.0865C27.8134 22.9677 27.5703 22.9078 27.3316 22.9078C26.9908 22.9078 26.5651 23.1509 26.0539 23.6364C25.5427 24.1224 25.0738 24.6505 24.6479 25.222C24.2219 25.7932 23.7701 26.3212 23.2934 26.8071C22.8159 27.2931 22.4235 27.5358 22.1171 27.5358C21.9632 27.5358 21.7714 27.4929 21.5415 27.4083C21.3117 27.3232 21.1369 27.2502 21.0169 27.1913C20.898 27.1312 20.6939 27.0123 20.4039 26.8328C20.1134 26.6537 19.9519 26.5557 19.9179 26.5386C17.5828 25.2428 15.5801 23.7599 13.9095 22.09C12.2394 20.4191 10.7563 18.4166 9.46088 16.0812C9.44387 16.0471 9.34563 15.8851 9.16679 15.5955C8.98768 15.3056 8.86831 15.1014 8.80867 14.9817C8.74903 14.8625 8.67658 14.6877 8.5915 14.4577C8.50643 14.2276 8.46371 14.036 8.46371 13.8824C8.46371 13.5757 8.70667 13.1835 9.19249 12.7062C9.67822 12.2291 10.2068 11.7773 10.7776 11.3514C11.3488 10.9256 11.8768 10.4567 12.3627 9.94554C12.8485 9.43411 13.0913 9.0082 13.0913 8.66736C13.0913 8.42888 13.0317 8.18574 12.9125 7.93867C12.7932 7.69105 12.61 7.3889 12.3627 7.03078C12.1154 6.67284 11.9663 6.45997 11.9151 6.39147C11.6597 5.96564 11.3958 5.50973 11.1227 5.02391C10.8497 4.53817 10.5516 3.99674 10.2276 3.40023C9.9039 2.80398 9.6484 2.34359 9.4607 2.01977C8.86446 0.82684 8.41285 0.178837 8.10595 0.0769258C7.98657 0.0257912 7.80747 0 7.56908 0C7.1086 0 6.50788 0.0850751 5.76647 0.255762C5.0248 0.426181 4.44119 0.604928 4.015 0.79272C3.16273 1.15048 2.25941 2.19019 1.30478 3.91148C0.435495 5.5134 0.000896454 7.09893 0.000896454 8.66691C0.000896454 9.12676 0.0307175 9.57417 0.0903595 10.0092C0.150002 10.4438 0.256569 10.9339 0.410152 11.4795C0.563466 12.0249 0.687138 12.43 0.780631 12.6938C0.874214 12.9578 1.04893 13.4308 1.30469 14.1128C1.5601 14.7946 1.71368 15.212 1.76482 15.3655C2.36133 17.036 3.0687 18.5273 3.88677 19.8399C5.23274 22.0215 7.06956 24.2762 9.39613 26.603C11.7228 28.9295 13.977 30.7663 16.1589 32.1128C17.4713 32.9308 18.9631 33.6381 20.6334 34.235C20.7869 34.2859 21.2043 34.4391 21.8859 34.6954C22.5677 34.951 23.0408 35.1257 23.3048 35.2195C23.5689 35.3133 23.9741 35.4371 24.5191 35.5907C25.0652 35.7442 25.5548 35.8508 25.9894 35.9109C26.4243 35.9697 26.8718 36.0001 27.3317 36.0001C28.8996 36.0001 30.4852 35.5652 32.0874 34.696C33.8085 33.7418 34.848 32.8383 35.2059 31.9854C35.3942 31.5596 35.5725 30.9758 35.7429 30.2342C35.9138 29.4928 35.9987 28.8922 35.9987 28.4318C35.9993 28.1924 35.9736 28.0138 35.9222 27.8934Z" fill="#292929"/>
</g>
<defs>
<clipPath id="clip0_20622_1005">
<rect width="36" height="36" fill="white"/>
</clipPath>
</defs>
</svg>
